<?xml version="1.0" encoding="UTF-8" standalone="no"?>
<svg
   xmlns:dc="http://purl.org/dc/elements/1.1/"
   xmlns:cc="http://creativecommons.org/ns#"
   xmlns:rdf="http://www.w3.org/1999/02/22-rdf-syntax-ns#"
   xmlns:svg="http://www.w3.org/2000/svg"
   xmlns="http://www.w3.org/2000/svg"
   viewBox="0 0 312.875 110.0875"
   height="110.0875"
   width="312.875"
   xml:space="preserve"
   version="1.1"
   id="svg2"><metadata
     id="metadata8"><rdf:RDF><cc:Work
         rdf:about=""><dc:format>image/svg+xml</dc:format><dc:type
           rdf:resource="http://purl.org/dc/dcmitype/StillImage" /></cc:Work></rdf:RDF></metadata><defs
     id="defs6" /><g
     transform="matrix(1.25,0,0,-1.25,0,110.0875)"
     id="g10"><g
       transform="scale(0.1,0.1)"
       id="g12"><path
         id="path14"
         style="fill:#ffffff;fill-opacity:1;fill-rule:nonzero;stroke:none"
         d="m 472.504,581.254 138.41,0 0,146.976 c 0,41.012 -20.496,61.52 -61.512,61.52 l -15.379,0 c -41.011,0 -61.519,-20.508 -61.519,-61.52 l 0,-146.976 z m -0.313,-93.793 0.313,-161.66 c 0,-41.012 20.508,-61.52 61.519,-61.52 l 17.942,0 c 41.012,0 61.515,20.508 61.515,61.52 l 0,79.461 94.84,0 0,-75.617 c 0,-103.813 -52.543,-156.36 -156.355,-156.36 l -20.508,0 c -103.812,0 -156.355,52.547 -156.355,144.203 l 0,394.742 c 0,115.965 52.543,168.516 156.355,168.516 l 20.508,0 c 103.812,0 156.355,-52.551 156.355,-156.363 l -0.312,-236.922 -235.817,0" /><path
         id="path16"
         style="fill:#ffffff;fill-opacity:1;fill-rule:nonzero;stroke:none"
         d="m 869.008,301.445 c 26.914,-23.062 57.676,-35.879 89.715,-35.879 35.886,0 56.397,16.657 56.397,56.387 l 0,410.121 c 0,39.735 -20.511,56.391 -56.397,56.391 -32.039,0 -62.801,-12.817 -89.715,-35.887 l 0,-451.133 z m -97.406,571.61 97.406,0 0,-44.86 c 23.07,24.356 62.801,52.551 119.195,52.551 83.307,0 124.317,-55.109 124.317,-137.133 l 0,-433.191 c 0,-82.027 -41.01,-137.137 -124.317,-137.137 -56.394,0 -96.125,26.914 -119.195,49.985 l 0,-223.27 -97.406,0 0,873.055" /><path
         id="path18"
         style="fill:#ffffff;fill-opacity:1;fill-rule:nonzero;stroke:none"
         d="m 1404.57,297.605 0,228.282 -88.43,-33.477 c -35.89,-14.101 -47.42,-32.039 -47.42,-71.769 l 0,-105.094 c 0,-33.324 16.66,-49.981 47.42,-49.981 29.47,0 56.39,10.25 88.43,32.039 z m -233.26,124.321 c 0,85.863 28.2,120.469 102.53,146.097 l 130.73,44.864 0,115.343 c 0,41.012 -20.51,62.801 -61.52,62.801 l -15.87,0 c -41.01,0 -61.52,-21.789 -61.52,-62.801 l 0,-98.027 -94.84,0 0,94.18 c 0,103.812 52.55,156.363 156.36,156.363 l 18.43,0 c 103.81,0 156.36,-52.551 156.36,-156.363 l 0,-543.406 -97.4,0 0,43.578 c -26.91,-25.637 -62.8,-51.27 -119.19,-51.27 -78.18,0 -114.07,44.86 -114.07,121.754 l 0,126.887" /><path
         id="path20"
         style="fill:#ffffff;fill-opacity:1;fill-rule:nonzero;stroke:none"
         d="m 1895.92,180.977 -97.41,0 0,557.503 c 0,34.606 -16.65,49.985 -46.13,49.985 -26.92,0 -55.11,-10.25 -89.72,-34.602 l 0,-572.886 -97.4,0 0,692.078 97.4,0 0,-44.86 c 28.2,26.914 65.37,52.551 119.2,52.551 49.98,0 83.3,-20.508 101.24,-56.394 34.61,29.48 75.62,56.394 132.01,56.394 75.62,0 114.07,-46.144 114.07,-121.758 l 0,-578.011 -97.41,0 0,557.503 c 0,34.606 -16.66,49.985 -46.14,49.985 -26.91,0 -55.11,-10.25 -89.71,-34.602 l 0,-572.886" /><path
         id="path22"
         style="fill:#ffffff;fill-opacity:1;fill-rule:nonzero;stroke:none"
         d="m 250.262,809.313 0,-127.266 -163.9222,-156.199 163.9222,-153.41 0,-130.047 L 0,477.641 0,571.27 250.262,809.313" /><path
         id="path24"
         style="fill:#ffffff;fill-opacity:1;fill-rule:nonzero;stroke:none"
         d="m 2503.02,571.27 0,-93.629 -250.26,-235.25 0,130.047 163.92,153.41 -163.92,156.199 0,127.266 250.26,-238.043" /></g></g></svg>